<svg width="117" height="80" viewBox="0 0 117 80" fill="none" xmlns="http://www.w3.org/2000/svg">
<path d="M115.547 61.263C115.547 61.684 115.336 62.1051 115.336 62.3156C114.598 65.263 113.438 67.1577 111.961 67.9998C110.379 68.8419 108.798 68.8419 107.216 67.9998C105.529 66.9472 104.369 64.6314 103.841 61.263C103.103 57.0524 103.103 52.8419 103.841 48.8419C104.685 44.4208 106.372 42.1051 108.692 41.4735C109.747 41.263 110.801 41.4735 111.856 42.1051C113.859 43.3682 115.019 46.3156 115.441 50.3156C115.441 50.5261 115.441 50.9472 115.441 51.1577V56.8419C115.441 56.8419 115.23 56.8419 115.125 56.8419C112.489 56.8419 109.852 56.8419 107.216 56.8419H106.899C106.899 57.684 107.005 58.5261 107.11 59.1577C107.427 61.684 108.059 62.9472 109.325 63.1577C110.485 63.3682 111.645 62.5261 112.067 60.2103C112.067 59.9998 112.172 59.9998 112.278 59.9998C112.91 59.9998 113.543 59.9998 114.281 59.9998C114.703 59.9998 115.019 59.9998 115.441 59.9998V61.0524L115.547 61.263ZM111.961 51.9998C111.961 50.9472 111.856 49.8945 111.645 48.8419C111.434 48.2103 111.223 47.5787 110.907 47.1577C110.063 46.3156 109.219 46.3156 108.481 47.1577C107.638 48.2103 107.321 50.1051 107.11 51.9998H112.067H111.961Z" fill="#2E3E5C"/>
<path d="M13.1504 68.2105H9.56491V65.2631C9.56491 65.2631 9.45946 65.4736 9.45946 65.6842C8.51037 68 7.24491 69.0526 5.76855 68.8421C4.92491 68.8421 4.08128 68.421 3.23764 67.3684C2.1831 66.1052 1.76128 64.2105 1.65582 61.8947C1.65582 60 1.65582 58.3157 2.1831 56.8421C2.71037 55.1578 3.554 54.1052 4.5031 53.2631C5.55764 52.6315 6.61219 52.2105 7.66673 52.2105C8.29946 52.2105 8.82673 52.2105 9.45946 52.2105C9.45946 50.9473 9.45946 49.8947 9.24855 48.6315C9.03764 47.7894 8.72128 47.1578 8.29946 46.9473C7.77219 46.7368 7.35037 46.7368 6.8231 46.9473C6.19037 47.3684 5.76855 48.2105 5.55764 49.4736C5.55764 49.4736 5.55764 49.8947 5.55764 50.1052H2.07764C2.07764 49.4736 2.07764 49.0526 2.1831 48.6315C2.49946 45.8947 3.3431 43.9999 4.60855 42.7368C6.61219 41.0526 8.61582 41.0526 10.7249 42.7368C12.2013 43.9999 12.9395 46.3157 13.1504 49.4736C13.1504 50.1052 13.1504 50.7368 13.1504 51.3684C13.1504 56.8421 13.1504 62.3157 13.1504 67.7894C13.1504 73.2631 13.1504 68.2105 13.1504 68.421V68.2105ZM9.56491 57.0526C8.93219 57.0526 8.40491 57.0526 7.77219 57.0526C7.35037 57.0526 7.034 57.0526 6.61219 57.2631C5.97946 57.4736 5.45219 58.1052 5.34673 59.5789C5.34673 60 5.34673 60.421 5.34673 60.8421C5.34673 62.1052 5.6631 62.9473 6.29582 63.3684C7.24491 64 8.08855 63.3684 8.82673 62.3157C9.1431 61.8947 9.35401 61.0526 9.45946 60.421C9.45946 59.3684 9.45946 58.1052 9.45946 57.0526H9.56491Z" fill="#2E3E5C"/>
<path d="M54.8049 57.0528H46.2631C46.2631 58.9476 46.474 60.8423 47.2122 62.316C47.7394 63.3686 48.4776 63.7897 49.3213 63.5792C50.2704 63.5792 51.0085 62.5265 51.4304 60.6318C51.4304 60.6318 51.5358 60.4213 51.6413 60.4213C52.6958 60.4213 53.7504 60.4213 54.9104 60.4213C54.9104 60.8423 54.9104 61.0528 54.8049 61.4739C54.3831 64.6318 53.3285 66.9476 51.7467 68.0002C49.8485 69.4739 47.9504 69.4739 46.1576 68.0002C44.6813 66.737 43.6267 64.6318 43.0994 61.4739C42.4667 57.2634 42.3613 53.0528 43.0994 49.0528C43.9431 44.6318 45.6304 42.316 47.9504 41.6844C49.0049 41.4739 50.0594 41.6844 51.114 42.316C53.0122 43.5792 54.1722 46.316 54.594 50.316C54.6994 51.5792 54.6994 52.8423 54.8049 54.1055C54.8049 55.1581 54.8049 56.2107 54.8049 57.2634V57.0528ZM51.2194 52.0002C51.2194 51.3686 51.2194 50.737 51.114 50.1055C50.9031 48.4213 50.4813 47.1581 49.5322 46.7371C48.5831 46.316 47.7394 46.737 47.1067 48.0002C46.5794 49.0528 46.474 50.5265 46.3685 52.0002H51.2194Z" fill="#2E3E5C"/>
<path d="M65.034 68.2105V67.5789C65.034 62.3157 65.034 57.2631 65.034 51.9999C65.034 51.3684 65.034 50.7368 65.034 50.1052C64.8231 48.2105 64.2958 47.3684 63.3467 47.1578C61.8703 47.1578 60.9213 48.8421 60.9213 51.5789C60.9213 56.8421 60.9213 62.1052 60.9213 67.3684C60.9213 67.3684 60.9213 67.7894 60.9213 67.9999H57.2303V41.8947H60.9213V45.6842C61.1322 45.2631 61.2376 44.8421 61.3431 44.421C62.0813 42.5263 63.1358 41.6842 64.2958 41.4736C64.9285 41.4736 65.5613 41.4736 66.194 41.6842C67.5649 42.5263 68.3031 44.421 68.6194 47.1578C68.7249 48.421 68.8303 49.4736 68.8303 50.7368C68.8303 56.421 68.8303 61.8947 68.8303 67.5789C68.8303 67.5789 68.8303 67.7894 68.8303 67.9999H65.1394L65.034 68.2105Z" fill="#2E3E5C"/>
<path d="M88.1285 42.1055H91.8194V68.2107H88.234V64.4213C88.234 64.4213 88.234 64.6318 88.1285 64.8423C87.3903 67.3686 86.3358 68.6318 84.8594 68.8423C84.0158 68.8423 83.2776 68.8423 82.5394 68.2107C81.274 67.1581 80.6413 65.0528 80.4303 62.5265C80.4303 61.6844 80.3249 60.8423 80.3249 59.7897C80.3249 54.1055 80.3249 48.4213 80.3249 42.737C80.3249 42.737 80.3249 42.5265 80.3249 42.316H84.0158V42.9476C84.0158 48.2107 84.0158 53.4739 84.0158 58.737C84.0158 59.3686 84.0158 59.7897 84.0158 60.4213C84.2267 62.737 84.9649 63.5792 86.1249 63.3686C87.3903 63.1581 88.1285 61.4739 88.1285 58.9476C88.1285 58.1055 88.1285 57.2634 88.1285 56.4213C88.1285 52.0002 88.1285 47.3686 88.1285 42.9476C88.1285 42.9476 88.1285 42.5265 88.1285 42.316V42.1055Z" fill="#2E3E5C"/>
<path d="M27.2813 58.5261C27.1758 63.9998 25.2776 67.9998 22.5358 68.6314C21.4813 68.8419 20.3213 68.6314 19.2667 68.2103C17.474 67.1577 16.314 64.8419 15.6813 61.4735C14.9431 57.263 14.9431 53.0524 15.6813 48.8419C16.5249 44.4208 18.2122 42.1051 20.5322 41.4735C21.5867 41.263 22.6413 41.4735 23.5904 42.1051C25.4885 43.3682 26.6485 45.8945 26.9649 49.8945C26.9649 50.3156 26.9649 50.7366 26.9649 51.3682C26.9649 51.3682 26.8594 51.3682 26.754 51.3682C25.6994 51.3682 24.6449 51.3682 23.5904 51.3682C23.4849 51.3682 23.3794 51.3682 23.3794 50.9472C23.3794 50.7366 23.3794 50.5261 23.3794 50.1051C23.1685 48.6314 22.6413 47.5787 21.9031 47.1577C21.0594 46.7366 20.2158 47.1577 19.5831 48.6314C19.1613 49.684 18.8449 50.9472 18.8449 52.2103C18.634 54.5261 18.634 56.8419 18.8449 58.9472C18.8449 59.3682 18.8449 59.5787 19.0558 59.9998C19.4776 62.1051 20.3213 63.1577 21.3758 62.9472C22.3249 62.9472 23.1685 61.684 23.4849 59.7893C23.4849 59.3682 23.5904 58.9472 23.6958 58.5261C23.6958 58.5261 23.6958 58.3156 23.8013 58.3156C24.8558 58.3156 25.9104 58.3156 26.9649 58.3156L27.2813 58.5261Z" fill="#2E3E5C"/>
<path d="M40.8849 51.158H37.4049C37.4049 50.5264 37.2994 50.1054 37.194 49.4738C36.5613 46.1054 34.5576 46.5264 33.714 48.0001C33.1867 49.0527 32.8703 50.3159 32.7649 51.7896C32.554 54.3159 32.554 56.6317 32.7649 59.158C32.7649 59.3685 32.7649 59.7896 32.8703 60.0001C33.2922 62.1054 34.1358 63.158 35.1903 63.158C36.1394 63.158 36.9831 61.8948 37.2994 59.7896C37.2994 59.3685 37.4049 59.158 37.4049 58.7369C37.4049 58.3159 37.4049 58.3159 37.7213 58.3159C38.6703 58.3159 39.6194 58.3159 40.674 58.3159C40.674 58.3159 40.7794 58.3159 40.8849 58.3159C40.8849 59.158 40.8849 59.7896 40.674 60.4212C40.1467 65.0527 38.4594 67.7896 36.1394 68.4212C34.9794 68.6317 33.8194 68.4212 32.7649 67.7896C31.0776 66.7369 29.8122 64.4212 29.2849 61.0527C28.5467 56.8422 28.5467 52.6317 29.3903 48.4212C30.234 44.4212 31.7103 42.1054 33.9249 41.2633C35.1903 40.8422 36.3503 41.0527 37.5103 41.8948C39.4085 43.158 40.3576 46.1054 40.674 49.8948C40.674 50.1054 40.674 50.3159 40.674 50.5264C40.674 50.5264 40.674 50.7369 40.674 50.9475L40.8849 51.158Z" fill="#2E3E5C"/>
<path d="M71.7831 47.5791H70.3067V42.1054H71.7831C71.7831 41.6843 71.7831 41.2633 71.7831 40.8422C71.7831 39.7896 71.7831 38.737 71.7831 37.6843C71.7831 37.6843 71.7831 37.2633 71.8885 37.2633C73.0485 36.2107 74.2085 35.3685 75.3685 34.3159C75.3685 34.3159 75.3685 34.3159 75.474 34.3159V42.1054H78.0049V47.5791H75.474V48.0001C75.474 51.7896 75.474 55.7896 75.474 59.5791C75.474 60.0001 75.474 60.4212 75.474 60.8422C75.5794 62.1054 76.0012 62.737 76.5285 62.737C76.9503 62.737 77.4776 62.737 77.8994 62.5264V68.0001C77.5831 68.0001 77.2667 68.2107 76.9503 68.4212C76.1067 68.6317 75.1576 68.6317 74.314 68.4212C72.8376 67.7896 71.994 65.6843 71.7831 62.737C71.7831 61.8949 71.7831 61.2633 71.7831 60.4212C71.7831 56.4212 71.7831 52.2107 71.7831 48.2107V47.5791Z" fill="#2E3E5C"/>
<path d="M67.9867 32.6315V29.6842C67.9867 28.6315 67.9867 27.3684 67.9867 26.3157C67.9867 25.8947 67.9867 25.8947 68.1976 25.6842C70.2012 24.2105 72.2049 22.7368 74.314 21.2631C74.314 21.2631 74.5249 21.2631 74.6303 21.0526C74.5249 21.0526 74.4194 21.0526 74.4194 20.8421C72.4158 19.3684 70.4121 17.6842 68.3031 16.2105C68.0921 16.2105 68.0921 15.9999 68.0921 15.5789C68.0921 13.6842 68.0921 11.7894 68.0921 9.89469V9.47363C68.4085 9.68416 68.8303 10.1052 69.1467 10.3157C72.4158 13.0526 75.7903 15.5789 79.0594 18.3157C79.2703 18.3157 79.2703 18.5263 79.2703 18.9473C79.2703 20.421 79.2703 21.8947 79.2703 23.5789C79.2703 23.9999 79.2703 23.9999 79.0594 24.2105C75.474 27.1578 71.8885 29.8947 68.3031 32.8421C68.3031 32.8421 68.1976 32.8421 68.0921 32.8421L67.9867 32.6315Z" fill="#2E3E5C"/>
<path d="M102.154 41.8947V49.0526C101.732 49.0526 101.31 49.0526 100.889 49.2631C100.678 49.2631 100.361 49.2631 100.15 49.4736C98.8849 50.3157 98.2522 51.9999 98.2522 54.5263C98.2522 58.9473 98.2522 63.3684 98.2522 67.5789C98.2522 67.5789 98.2522 67.9999 98.2522 68.2105H94.5613V41.8947H98.2522V46.5263C98.9904 43.1578 100.361 41.4736 102.154 41.4736V41.8947Z" fill="#2E3E5C"/>
</svg>
