<svg width="439" height="80" viewBox="0 0 439 80" fill="none" xmlns="http://www.w3.org/2000/svg">
<g clip-path="url(#clip0_1476_6652)">
<path d="M414.372 68.236C414.372 61.8831 419.678 56.9419 425.95 56.9419C432.221 56.9419 437.527 62.1184 437.527 68.236C437.527 74.3537 432.221 79.5301 425.95 79.5301C419.678 79.5301 414.372 74.589 414.372 68.236Z" fill="#2E3E5C"/>
<path d="M66.5697 37.8824C66.5697 51.0589 63.1929 60.9412 55.9571 68.0001C48.7213 75.0589 38.5911 78.5883 25.5666 78.5883H-7.62939e-05V0.235352H27.0137C39.7971 0.235352 49.4448 3.29418 56.1983 9.88241C63.1929 16.2354 66.5697 25.6471 66.5697 37.8824ZM44.3797 38.5883C44.3797 31.2942 42.9326 26.1177 40.0382 22.5883C37.3851 19.2942 32.8024 17.4118 27.0137 17.4118H21.2251V61.1765H26.049C32.5612 61.1765 37.1439 59.2942 40.2794 55.5295C42.9326 51.7648 44.3797 46.1177 44.3797 38.5883Z" fill="#2E3E5C"/>
<path d="M156.776 0H136.757V78.5882H156.776V0Z" fill="#2E3E5C"/>
<path d="M222.864 49.1767C222.864 58.5885 220.452 66.1179 215.146 71.5297C209.839 76.9414 202.604 79.5297 193.438 79.5297C184.273 79.5297 177.519 76.9414 172.213 71.2944C166.907 65.6473 164.254 58.3532 164.254 49.1767C164.254 40.0003 166.666 32.2356 171.972 27.0591C177.278 21.6473 184.514 19.0591 193.679 19.0591C202.845 19.0591 204.533 20.2356 208.875 22.5885C213.457 24.9414 216.593 28.4708 219.005 32.9414C221.899 37.8826 222.864 43.0591 222.864 49.1767ZM184.996 49.1767C184.996 54.3532 185.72 57.8826 186.926 60.4708C188.132 63.0591 190.303 64.2355 193.679 64.2355C197.056 64.2355 198.986 63.0591 200.433 60.4708C201.639 57.8826 202.362 53.8826 202.362 49.1767C202.362 44.4708 201.639 40.4708 200.433 37.8826C199.227 35.5297 197.056 34.1179 193.679 34.1179C190.303 34.1179 188.373 35.2944 186.926 37.8826C185.72 40.4708 184.996 44.0003 184.996 49.1767Z" fill="#2E3E5C"/>
<path d="M251.084 20H231.065V78.3529H251.084V20Z" fill="#2E3E5C"/>
<path d="M251.084 0H231.065V13.1765H251.084V0Z" fill="#2E3E5C"/>
<path d="M291.846 63.5299C294.499 63.5299 297.876 62.824 301.493 61.6476V76.4711C298.84 77.6476 296.187 78.3534 293.775 78.824C291.363 79.2946 288.469 79.5299 285.092 79.5299C278.339 79.5299 273.515 77.8829 270.379 74.3535C267.485 71.0593 265.797 65.8829 265.797 59.0593V35.0593H258.802V20.0005H265.797V5.41228L286.057 2.11816V20.4711H299.081V35.2946H286.057V57.8829C286.539 61.8829 288.228 63.5299 291.846 63.5299Z" fill="#2E3E5C"/>
<path d="M338.637 63.5299C341.29 63.5299 344.667 62.824 348.285 61.6476V76.4711C345.632 77.6476 342.979 78.3534 340.567 78.824C338.155 79.2946 335.261 79.5299 331.884 79.5299C325.13 79.5299 320.307 77.8829 317.171 74.3535C314.277 71.0593 312.588 65.8829 312.588 59.0593V35.0593H305.594V20.0005H312.588V5.17699L332.849 2.11816V20.4711H345.873V35.2946H332.849V57.8829C333.09 61.8829 335.019 63.5299 338.637 63.5299Z" fill="#2E3E5C"/>
<path d="M402.313 25.8826C397.489 21.1767 390.735 19.0591 382.052 19.0591C373.369 19.0591 365.651 21.6473 360.586 27.0591C355.521 32.4708 353.109 40.0003 353.109 49.8826C353.109 59.765 355.762 66.8238 361.068 72.0003C366.616 77.1767 374.093 79.765 383.741 79.765C393.388 79.765 392.424 79.765 395.8 78.8238C398.936 78.1179 402.554 77.1767 405.448 75.5297L402.554 62.3532C400.383 63.2944 397.971 64.0003 396.042 64.4709C393.147 65.1767 389.77 65.412 386.394 65.412C383.017 65.412 379.399 64.4709 377.228 62.8238C375.058 60.9414 373.852 58.3532 373.852 55.0591H409.79V45.8826C409.548 37.1767 406.895 30.5885 402.313 25.8826ZM373.852 42.1179C374.093 39.0591 375.058 36.4708 376.505 35.0591C377.952 33.6473 379.882 32.9414 382.535 32.9414C385.188 32.9414 387.359 33.6473 388.806 35.2944C390.253 36.9414 390.976 39.0591 391.218 42.1179H373.852Z" fill="#2E3E5C"/>
<path d="M121.803 25.8826C116.738 21.1767 110.226 19.0591 101.543 19.0591C92.8599 19.0591 85.1417 21.6473 80.0766 27.0591C75.0115 32.4708 72.5996 40.0003 72.5996 49.8826C72.5996 59.765 75.2527 66.8238 80.559 72.0003C86.1065 77.1767 93.5835 79.765 103.231 79.765C112.879 79.765 111.914 79.765 115.291 78.8238C118.427 78.1179 122.044 77.1767 124.939 75.5297L122.044 62.1179C119.874 63.0591 117.462 63.765 115.532 64.2356C112.638 64.9414 109.261 65.1767 105.884 65.1767C102.508 65.1767 98.8898 64.2356 96.719 62.5885C94.5483 60.7061 93.3423 58.1179 93.3423 54.8238H129.28V45.8826C129.28 37.1767 126.386 30.5885 121.803 25.8826ZM93.1011 42.1179C93.1011 39.0591 94.3071 36.4708 95.7543 35.0591C97.2014 33.6473 99.131 32.9414 101.784 32.9414C104.437 32.9414 106.608 33.6473 108.055 35.2944C109.502 36.9414 110.226 39.0591 110.467 42.1179H93.1011Z" fill="#2E3E5C"/>
</g>
<defs>
<clipPath id="clip0_1476_6652">
<rect width="438.974" height="80" fill="white"/>
</clipPath>
</defs>
</svg>
