<?xml version="1.0" encoding="UTF-8"?>
<svg id="Layer_1" data-name="Layer 1" xmlns="http://www.w3.org/2000/svg" version="1.1" viewBox="0 0 566 105">
  <defs>
    <style>
      .cls-1 {
        fill: #333;
        stroke-width: 0px;
      }
    </style>
  </defs>
  <g id="Symbols">
    <g id="logo-flydocs">
      <g id="flydocs">
        <path id="Path" class="cls-1" d="M154.3,1h-77.7c-6.4,0-12.1,4.1-14.2,10.1l-21.6,62.9c-2.7,6.7-5.1,9-8.4,10.1-.3,0-.5.3-.4.6,0,.3.3.5.6.4h77.8c6.4,0,12.1-4.1,14.2-10.1l19.8-57.6,2.2-6.5c2.5-5.8,4.8-7.8,7.9-8.8.3,0,.5-.3.4-.6,0-.3-.3-.5-.6-.4Z"/>
        <path id="Path-2" data-name="Path" class="cls-1" d="M37.2,43H1.5c-.3,0-.5.1-.6.4,0,.3.1.5.4.6,3.2,1,5.7,3.3,8.3,9.8l7.3,21.1v.2c3,8.2,14.7,8,17.6-.3l8.3-24.1c2.4-7-1.5-7.8-5.5-7.8Z"/>
        <path id="Path-3" data-name="Path" class="cls-1" d="M218.4,37.5h-11.6v47.5h-17.9v-47.5h-8.4v-12.6h8.4v-4.4c0-13.1,6.4-19.5,19.7-19.5h9.8v14.2h-5.3c-4.2,0-6.3,1.9-6.3,5.4v4.3h11.6v12.6Z"/>
        <polygon id="Path-4" data-name="Path" class="cls-1" points="242.8 85.1 224.9 85.1 224.9 1 242.8 1 242.8 85.1"/>
        <path id="Path-5" data-name="Path" class="cls-1" d="M309.9,24.2l-21.2,61.4c-3.4,10-5.4,13.5-8.6,15.8-2.9,2.1-6.9,3-13.6,3h-10.5v-13.5h5.3c6.3,0,9.2-2.4,9.2-7.7s-.1-2.5-2.3-7.8l-20-51.1h19.1l8.9,27.8c1.8,5.7,1.8,5.8,3.1,10.8l.8,2.4c.8-4,1.8-8.2,3.1-13.6l7.9-27.5h18.5Z"/>
        <path id="Shape" class="cls-1" d="M370.9,85.1h-17.1v-6.6c-4.5,5.9-9.3,8.2-16.8,8.2-16,0-26.7-12.7-26.7-32s10.8-32.3,27.2-32.3,11.2,1.9,15.5,6.3V1h17.9v84.1ZM327.9,54.5c0,10.7,5,17.6,12.9,17.6s12.9-7,12.9-17.4-5-17.9-12.9-17.9-12.8,6.9-12.8,17.6h0Z"/>
        <path id="Shape-2" data-name="Shape" class="cls-1" d="M440.7,55.1c0,18.4-13.6,31.6-32.4,31.6s-32.2-13.2-32.2-32.1,13.4-32,32.2-32,32.4,13.1,32.4,32.5ZM394.1,54.5c0,11.5,5.2,17.9,14.4,17.9s14.2-6.4,14.2-17.5-5-18.1-14.4-18.1-14.2,6.4-14.2,17.8Z"/>
        <path id="Path-6" data-name="Path" class="cls-1" d="M487.4,46.1c-1-5.8-5-9.1-11.1-9.1s-12.6,6.2-12.6,17.3,4.4,17.9,12.7,17.9,10-3.3,11.3-10.5l17.4.9c-2.5,15.4-13.1,24.1-29.2,24.1s-30.2-12.3-30.2-31.9,11.6-32.3,30.9-32.3,26.7,9.1,27.9,23.6h-17Z"/>
        <path id="Path-7" data-name="Path" class="cls-1" d="M547.5,42.5c-.8-4.5-4.4-6.9-10.3-6.9s-8.6,2-8.6,5,1.8,3.4,7.4,4.7l11.2,2.4c7.4,1.5,11.2,3.1,13.9,5.9,2.9,2.8,4.5,7.3,4.5,12.2,0,12.8-10.5,20.9-27.3,20.9s-27.3-7.9-28.4-21.4h16.8c1,5.8,4.8,8.4,12,8.4s9.3-2.3,9.3-5.9-2-4.4-6.8-5.5l-11.1-2.5c-13.3-2.9-18.5-7.8-18.5-17.5s9.7-19.6,26-19.6,25.1,7,26.7,19.9h-16.8Z"/>
      </g>
    </g>
  </g>
</svg>