<svg width="743" height="80" viewBox="0 0 743 80" fill="none" xmlns="http://www.w3.org/2000/svg">
<g clip-path="url(#clip0_1476_6523)">
<path d="M40.5935 0C28.5475 10.3018 15.0163 18.1891 0.330029 24.3058L52.4745 60.6841L49.5043 61.9718L27.8874 47.9678C20.9568 43.2998 3.4653 46.6801 0 52.3139L40.0985 79.6781C51.3194 69.3763 64.6856 61.006 80.5269 54.7284L27.8874 19.1549L30.6926 16.9014L47.8541 28.8129C56.4349 34.7686 63.2005 36.2173 81.517 27.5252L40.5935 0Z" fill="#2E3E5C"/>
<path d="M122.111 19.96H145.048L151.813 43.139L158.579 19.96H181.351V59.8795H166.664V31.2276H166.499L157.919 59.8795H145.708L136.962 31.2276V59.8795H122.111V19.96Z" fill="#2E3E5C"/>
<path d="M210.888 32.0324L205.938 45.7145H215.674L210.723 32.0324M200.822 19.96H220.624L238.116 59.8795H220.789L218.974 55.2115H202.142L200.327 59.8795H183.001L200.657 19.96H200.822Z" fill="#2E3E5C"/>
<path d="M293.89 19.96H310.062V44.1048C310.062 49.2557 313.032 50.8654 318.477 50.8654C323.923 50.8654 326.893 49.0948 326.893 44.1048V19.96H343.065V44.7487C343.065 57.465 335.144 61.1672 318.477 61.1672C301.811 61.1672 293.89 57.304 293.89 44.7487V19.96Z" fill="#2E3E5C"/>
<path d="M361.216 29.9398H346.2V19.96H392.404V29.9398H377.388V59.8795H361.216V29.9398Z" fill="#2E3E5C"/>
<path d="M411.876 19.96H395.704V59.8795H411.876V19.96Z" fill="#2E3E5C"/>
<path d="M256.102 29.9398H267.488C270.128 29.9398 272.273 30.5837 272.273 33.6421C272.273 36.7004 270.953 37.3443 267.818 37.3443H256.267V29.9398M293.065 59.8795L279.369 47.4851C290.755 45.7145 289.27 34.9298 289.27 31.2276C289.27 27.5254 286.795 23.0183 283.659 21.5696C281.349 20.6038 278.544 19.96 273.924 19.96H239.931V59.8795H256.102V47.6461H258.907L272.439 59.8795H293.065Z" fill="#2E3E5C"/>
<path d="M464.515 42.8171C456.594 41.6903 453.294 37.1833 453.294 31.5495C453.294 21.2476 463.69 18.5112 477.056 18.5112C490.422 18.5112 502.798 23.1792 503.458 31.5495H484.647C484.647 29.7788 483.657 28.974 482.172 28.3301C480.852 27.6863 478.871 27.5253 477.056 27.5253C472.106 27.5253 470.621 28.6521 470.621 30.4227C470.621 32.1933 471.116 32.3543 472.766 32.5153L492.073 35.2517C500.323 36.3784 505.274 40.2416 505.274 46.8412C505.274 56.4992 497.023 61.1672 478.871 61.1672C460.72 61.1672 452.964 59.3965 452.799 47.807H472.271C472.271 49.0947 472.766 50.0605 474.086 50.7044C475.241 51.1873 477.056 51.5092 479.696 51.5092C484.812 51.5092 486.132 50.2215 486.132 48.2899C486.132 46.3583 485.472 45.8754 483.162 45.5535L464.515 42.978" fill="#2E3E5C"/>
<path d="M509.729 19.96H525.9V44.1048C525.9 49.2557 528.871 50.8654 534.316 50.8654C539.762 50.8654 542.732 49.0948 542.732 44.1048V19.96H558.903V44.7487C558.903 57.465 550.983 61.1672 534.316 61.1672C517.65 61.1672 509.729 57.304 509.729 44.7487V19.96Z" fill="#2E3E5C"/>
<path d="M563.029 51.3483L587.616 29.9398H564.844V19.96H609.398V28.4911L585.471 49.7386H608.903V59.8795H563.029V51.3483Z" fill="#2E3E5C"/>
<path d="M613.688 19.96H629.859V44.1048C629.859 49.2557 632.83 50.8654 638.275 50.8654C643.721 50.8654 646.691 49.0948 646.691 44.1048V19.96H662.862V44.7487C662.862 57.465 654.942 61.1672 638.275 61.1672C621.609 61.1672 613.688 57.304 613.688 44.7487V19.96Z" fill="#2E3E5C"/>
<path d="M742.564 19.96H726.393V59.8795H742.564V19.96Z" fill="#2E3E5C"/>
<path d="M669.958 59.8795H685.634L685.139 45.5535L701.145 59.8795H721.607L699.165 39.4368L722.927 19.96H703.126L685.634 33.6421V19.96H669.958V59.8795Z" fill="#2E3E5C"/>
</g>
<defs>
<clipPath id="clip0_1476_6523">
<rect width="742.564" height="80" fill="white"/>
</clipPath>
</defs>
</svg>
