<svg width="421" height="80" viewBox="0 0 421 80" fill="none" xmlns="http://www.w3.org/2000/svg">
<g clip-path="url(#clip0_1476_6501)">
<path d="M0.179385 55.0948C0.179385 54.7096 0.442206 54.196 0.573616 53.6823C4.51592 53.4255 8.58964 53.2971 12.6634 53.0403C16.7371 52.7834 20.8108 52.7834 24.8845 52.655C24.8845 52.655 25.0159 52.7834 25.0159 52.9119C25.5416 57.1494 28.4326 58.9472 32.2435 59.3324C36.3172 59.846 40.3909 59.3324 43.939 57.4062C45.1217 56.7642 46.173 55.7369 46.9614 54.4528C47.8813 52.9119 47.3557 51.3709 45.6473 50.2152C43.282 48.5459 40.3909 47.9038 37.6313 47.1334C31.7179 45.5924 25.673 44.4367 20.1537 41.9969C16.08 40.1992 12.5319 37.7594 10.298 33.907C8.19541 30.0547 7.66977 25.4319 8.85246 21.1944C11.0864 10.7931 18.314 5.39981 28.564 3.34524C34.8717 2.18954 41.4422 2.06113 47.7499 2.96C53.4005 3.47365 58.9198 4.88617 64.0448 7.06915C69.4326 9.63737 73.6377 13.3613 75.2146 19.3966C75.6089 21.3228 75.8717 23.2489 76.1345 25.1751C67.7243 24.9183 59.5768 24.6614 51.4294 24.4046C51.0352 20.1671 48.0127 18.883 44.4646 18.4977C41.8364 18.2409 39.2082 18.2409 36.7114 18.4977C34.4775 18.4977 32.7691 20.2955 32.9005 22.3501C32.9005 24.0194 33.9518 25.4319 35.5287 25.9456C38.0255 26.9728 40.6537 27.8717 43.282 28.6422C48.407 30.0547 53.532 31.2104 58.657 32.7513C61.4166 33.6502 64.0448 34.8059 66.4102 36.2184C72.455 39.8139 74.2948 45.2072 72.1922 51.8846C69.564 60.1029 63.782 65.6245 56.2916 69.6053C50.9037 72.5587 44.9903 74.3565 38.9454 74.9985C33.8204 75.5122 28.6954 75.8974 23.5704 76.0258C17.7884 76.2826 12.1377 74.4849 7.40695 71.1462C3.33323 68.1928 0.705027 63.6984 0.179385 58.8188C0.179385 58.4335 0.0479752 58.1767 -0.0834351 57.7915V54.7096H0.179385V55.0948Z" fill="#2E3E5C"/>
<path d="M420.692 79.9998C411.888 78.8441 403.215 77.6884 394.41 76.5327C394.016 73.3224 393.622 70.1122 393.096 66.7735C389.942 66.3883 386.788 66.1314 383.635 65.7462C379.035 65.2326 374.304 64.7189 369.705 64.3337C368.785 64.2053 367.865 64.0769 366.814 64.0769C366.42 64.0769 366.026 64.4621 365.763 64.7189C364.317 67.1587 363.003 69.5985 361.689 72.0383C361.426 72.6804 360.638 73.0656 359.981 72.9372C354.593 72.4236 349.205 71.9099 343.817 71.3963C341.189 71.1395 338.561 70.8826 335.801 70.6258C336.853 68.9565 337.772 67.4155 338.692 66.003C351.833 45.4573 364.843 24.7831 377.984 4.23737C378.641 3.21008 379.824 2.56803 381.138 2.69644C388.497 1.79756 395.987 1.0271 403.346 0.128219C403.346 0.128219 403.478 0.128219 403.609 0.128219C406.106 0.128219 405.58 -0.385425 406.106 1.92597C407.683 10.5295 409.391 19.133 410.968 27.7366C412.676 36.9822 414.516 46.2277 416.224 55.4733C417.67 63.178 419.247 70.8826 420.692 78.5873C420.692 79.1009 420.692 79.4862 420.692 79.9998ZM387.84 24.2695C387.84 24.2695 387.708 24.2695 387.577 24.2695C383.109 32.7446 378.772 41.2197 374.304 49.9517C380.087 50.4653 385.737 50.9789 391.519 51.621C390.205 42.3754 389.022 33.3866 387.84 24.3979V24.2695Z" fill="#2E3E5C"/>
<path d="M105.701 68.5794C98.9995 68.5794 92.5604 67.6805 86.7784 64.4703C81.1277 61.6452 77.3168 56.1235 76.6598 50.0882C74.6886 35.5778 82.4418 21.4526 95.9771 15.0321C101.628 12.3354 107.673 10.6661 113.849 10.1524C121.996 9.25356 130.144 10.1524 137.897 12.4638C144.336 14.5184 149.855 17.9855 153.009 24.0208C155.9 29.5425 155.769 35.1926 153.798 40.9711C150.512 50.8587 143.416 57.5361 134.086 62.1589C127.384 65.4975 120.025 67.5521 112.403 68.0658C110.169 68.3226 107.804 68.3226 105.57 68.5794H105.701ZM118.842 22.8651C113.192 22.8651 107.935 25.5617 104.782 30.0561C101.365 34.8073 99.9194 40.5858 100.576 46.3643C100.839 50.3451 103.862 53.6837 107.935 54.4542C112.535 55.4815 117.397 54.711 121.339 52.1428C128.567 47.3916 131.195 40.329 130.669 32.1107C130.669 28.3868 127.91 25.0481 124.23 24.0208C122.391 23.5072 120.551 23.2504 118.711 22.9935L118.842 22.8651Z" fill="#2E3E5C"/>
<path d="M179.423 34.6706C178.635 38.6514 177.846 42.2469 177.189 45.714C175.875 52.1345 174.561 58.6835 173.247 65.104C173.115 65.4892 172.721 65.8745 172.327 66.0029C165.625 66.2597 158.792 66.3881 152.09 66.5165C151.958 66.5165 151.696 66.5165 151.301 66.5165C155.506 48.2822 159.712 30.1762 163.917 11.9419C166.545 11.9419 169.042 11.9419 171.407 11.9419C175.612 11.9419 179.817 12.0703 184.022 12.0703C184.942 12.0703 185.731 12.4555 185.994 13.226C191.25 22.8568 196.506 32.4876 201.763 41.99C201.894 42.2469 202.157 42.5037 202.42 43.0173C203.208 40.0639 203.865 37.4957 204.522 34.799C206.231 27.608 207.939 20.2886 209.516 13.0976C209.647 12.4555 209.91 12.1987 210.567 12.1987C217.401 12.1987 224.103 12.1987 230.936 12.1987C231.067 12.1987 231.199 12.1987 231.462 12.1987C230.804 14.6385 230.279 17.2067 229.622 19.6465C227.519 27.7364 225.417 35.9547 223.445 44.0446C221.737 50.8504 219.897 57.6562 218.189 64.462C217.926 65.3608 217.401 65.3608 216.744 65.3608C211.619 65.3608 206.362 65.3608 201.237 65.3608C199.66 65.3608 197.821 65.8745 196.638 65.104C195.455 64.3335 195.061 62.5358 194.272 61.2517C189.673 52.7766 184.942 44.4299 180.343 35.9547C180.08 35.5695 179.817 35.0559 179.423 34.4138V34.6706Z" fill="#2E3E5C"/>
<path d="M222.263 65.4892C223.577 63.563 224.891 61.6368 226.205 59.8391C237.244 44.0445 248.413 28.25 259.452 12.4555C259.846 11.8134 260.635 11.2998 261.423 11.2998C268.256 11.0429 275.09 10.9145 281.923 10.5293C282.974 10.5293 283.5 10.6577 283.631 11.8134C285.077 18.3624 286.654 24.9113 288.231 31.4603C290.99 43.1457 293.619 54.7026 296.378 66.388C296.378 66.7733 296.51 67.2869 296.641 67.929L274.038 66.9017C273.513 64.3335 272.987 61.8937 272.593 59.4539C272.593 58.6834 272.199 58.4266 271.41 58.4266C268.913 58.4266 266.285 58.4266 263.788 58.2982C259.452 58.2982 254.984 58.2982 250.647 58.0413C249.859 58.0413 249.07 58.2982 248.676 59.0686C247.362 61.1232 246.048 63.1778 244.734 65.1039C244.34 65.6176 243.814 65.8744 243.288 65.8744C236.455 65.8744 229.753 65.6176 222.92 65.4892C222.657 65.4892 222.394 65.4892 222.131 65.4892H222.263ZM268.125 26.8375C267.994 26.8375 267.731 26.8375 267.599 26.8375C263.92 33.9001 260.24 40.8343 256.561 47.8969H271.016C269.965 40.8343 269.045 33.9001 268.125 26.9659V26.8375Z" fill="#2E3E5C"/>
<path d="M304.131 68.3144C307.548 53.6755 310.833 39.2935 314.119 24.7831H293.356C292.304 20.0319 291.122 15.1522 290.07 10.2726C316.615 8.34646 343.029 6.4203 369.442 4.36572C366.551 8.98852 363.792 13.4829 360.901 18.1057C359.981 19.5182 358.929 20.9307 358.141 22.4717C357.747 23.2421 356.958 23.6274 356.17 23.6274C351.965 23.6274 347.76 23.7558 343.554 23.8842C341.715 23.8842 339.744 24.141 337.904 24.141C336.064 24.141 336.721 24.5262 336.59 25.2967C335.538 30.1763 334.487 35.0559 333.304 39.9355C331.596 47.7686 329.756 55.7301 328.048 63.5632C327.654 65.3609 327.128 67.1587 326.865 68.9564C326.734 69.7269 326.34 69.9837 325.551 69.9837C322.66 69.7269 319.769 69.5985 316.878 69.3416C313.462 69.0848 310.045 68.828 306.497 68.5712C305.708 68.5712 304.92 68.4428 303.869 68.3144H304.131Z" fill="#2E3E5C"/>
</g>
<defs>
<clipPath id="clip0_1476_6501">
<rect width="420.513" height="80" fill="white" transform="translate(0.179443)"/>
</clipPath>
</defs>
</svg>
