<?xml version="1.0" encoding="UTF-8"?>
<svg id="Layer_1" data-name="Layer 1" xmlns="http://www.w3.org/2000/svg" version="1.1" xmlns:xlink="http://www.w3.org/1999/xlink" viewBox="0 0 595.3 841.9">
  <defs>
    <style>
      .cls-1, .cls-2, .cls-3, .cls-4, .cls-5, .cls-6 {
        stroke-width: 0px;
      }

      .cls-1, .cls-4, .cls-5 {
        fill: #333;
      }

      .cls-2, .cls-4 {
        fill-rule: evenodd;
      }

      .cls-2, .cls-6 {
        fill: #fdfdfd;
      }

      .cls-3 {
        fill: none;
      }

      .cls-7 {
        clip-path: url(#clippath);
      }

      .cls-5 {
        display: none;
      }
    </style>
    <clipPath id="clippath">
      <rect class="cls-3" x="97.1" y="232" width="400.9" height="379"/>
    </clipPath>
  </defs>
  <rect class="cls-5" x="138.3" y="232" width="323.8" height="321.7"/>
  <rect class="cls-6" x="147.8" y="241.4" width="305" height="302.9"/>
  <rect class="cls-1" x="158.7" y="252.2" width="283.1" height="281.3"/>
  <rect class="cls-6" x="183.9" y="302.4" width="55.7" height="18.1"/>
  <rect class="cls-6" x="199.2" y="316.5" width="25.2" height="43.3"/>
  <polygon class="cls-2" points="256.5 302.5 281.1 302.5 303.7 359.9 278.7 360 256.5 302.5"/>
  <polygon class="cls-2" points="280.5 302.5 255.8 302.5 233.2 359.9 258.2 360 280.5 302.5"/>
  <rect class="cls-6" x="297.4" y="302.4" width="55.7" height="18.1"/>
  <rect class="cls-6" x="312.8" y="316.5" width="25.2" height="43.3"/>
  <polygon class="cls-2" points="369.9 302.5 394.7 302.5 417.2 359.9 392.2 360 369.9 302.5"/>
  <polygon class="cls-2" points="394.1 302.5 369.3 302.5 346.8 359.9 371.7 360 394.1 302.5"/>
  <rect class="cls-6" x="183.9" y="457.4" width="5.4" height="25.2"/>
  <g class="cls-7">
    <path class="cls-2" d="M199.3,482.6h5.1v-14.4c0-1.3,0-2.9-.4-5,.9,2.1,1.6,3.7,2.2,4.5l11.3,15h5.2v-25.2h-5.1v14.1c0,1.2,0,2.9.4,5-.9-2.1-1.6-3.6-2.2-4.5l-11-14.6h-5.5v25.2Z"/>
    <path class="cls-2" d="M231.1,479.4c1.3,2.5,4,3.9,7.9,3.9s8.8-3.3,8.8-7.8-2-5.6-6.2-7.6c-2.7-1.3-5-1.8-5-4.1s1.4-2.9,3.5-2.9,3,.7,3.7,2.2l3.1-3c-1.6-2.3-3.8-3.3-6.7-3.3-5.4,0-8.8,3.2-8.8,7.2s2.1,5.3,5.8,7.3c3.4,1.7,5.5,2.2,5.5,4.5s-1.5,3.3-4.1,3.3-3.8-1.1-4.6-3l-3,3.4Z"/>
    <path class="cls-2" d="M277.8,457.4h-5.3v14.9c0,4.1-1.8,6.3-5.5,6.3s-5.4-2.1-5.4-6.3v-14.9h-5.3v15.7c0,6.9,3.5,10.3,10.8,10.3s10.7-3.4,10.7-10.3v-15.7Z"/>
    <path class="cls-2" d="M305.6,482.6l-6.9-11.5c3.2-.4,5.5-3.1,5.5-6.6s-3-7.2-9-7.2h-7.6v25.2h5.3v-11.8l6.6,11.8h6.1ZM292.9,468.1v-6.6h.8c3.4,0,5.3.5,5.3,3.4s-2,3.2-5.3,3.2h-.8Z"/>
    <path class="cls-2" d="M325.9,473h-6.9l2.7-8c0-.3.4-1.5.7-3.5.3,1.8.6,2.9.7,3.4l2.8,8.1ZM310.1,482.6h5.7l1.8-5.3h9.6l2.1,5.3h6l-9.6-25.2h-6.1l-9.4,25.2Z"/>
    <path class="cls-2" d="M342.1,482.6h5.1v-14.4c0-1.3,0-2.9-.3-5,.8,2.1,1.6,3.7,2.2,4.5l11.3,15h5.2v-25.2h-5v14.1c0,1.2,0,2.9.3,5-.8-2.1-1.6-3.6-2.2-4.5l-10.9-14.6h-5.6v25.2Z"/>
    <path class="cls-2" d="M395.5,463.9l.3-5.4c-2.1-1-4.6-1.7-7.7-1.7-8.2,0-13.7,5.8-13.7,13.3s5.5,13.3,13.6,13.3,5.2-.7,7.5-2.1v-5.5c-2.2,2-4.6,2.9-7.4,2.9-5.2,0-8.1-3.5-8.1-8.7s3.3-8.9,8.6-8.9,5.1,1.1,6.9,2.8"/>
    <polygon class="cls-2" points="404.8 482.6 419.5 482.6 419.5 478.1 410.1 478.1 410.1 471.7 419.5 471.7 419.5 467.1 410.1 467.1 410.1 461.9 419.5 461.9 419.5 457.4 404.8 457.4 404.8 482.6"/>
    <path class="cls-2" d="M257.9,416.4l-10.9-27.1-11.2,27.1h22.1ZM259.3,420.1h-24.9l-4.4,10.6c-1,2.6-1.6,4.5-1.6,5.9s.5,1.9,1.4,2.6c1,.8,3,1.4,6.1,1.6v1.7h-20.3v-1.7c2.7-.6,4.5-1.2,5.3-2,1.6-1.6,3.4-4.8,5.4-9.6l22.7-55.2h1.6l22.4,55.7c1.8,4.5,3.4,7.4,4.9,8.7,1.5,1.4,3.6,2.1,6.2,2.3v1.7h-25.4v-1.7c2.6-.2,4.3-.6,5.2-1.4,1-.8,1.4-1.7,1.4-2.8s-.6-3.7-1.8-6.9l-3.9-9.6Z"/>
    <path class="cls-2" d="M315,440.8v1.7h-27.6v-1.7h2.3c2.6,0,4.6-.9,5.8-2.5.8-1,1.2-3.6,1.2-7.6v-43.3c0-3.4-.2-5.6-.6-6.7-.3-.9-1-1.6-1.9-2.1-1.4-.8-2.9-1.2-4.4-1.2h-2.3v-1.8h27.6v1.8h-2.3c-2.6,0-4.6.8-5.7,2.4-.8,1.1-1.2,3.7-1.2,7.6v43.3c0,3.4.2,5.6.6,6.8.3.8,1,1.5,1.9,2.1,1.4.8,2.9,1.3,4.4,1.3h2.3Z"/>
    <path class="cls-2" d="M377,374l1.7,21.2h-1.7c-1.7-5.2-3.8-9.2-6.5-11.9-3.8-3.9-8.7-5.8-14.8-5.8s-14.4,3.4-18.7,10.2c-3.6,5.6-5.4,12.5-5.4,20.4s1.2,12.2,3.5,17.5c2.4,5.3,5.5,9.1,9.3,11.6,3.8,2.5,7.8,3.7,11.9,3.7s4.6-.4,6.9-1c2.2-.6,4.3-1.6,6.4-2.8v-19.4c0-3.3-.2-5.6-.7-6.6-.5-1-1.3-1.8-2.3-2.4-1-.6-2.8-.8-5.4-.8v-1.9h24.9v1.9h-1.1c-2.5,0-4.2.9-5.1,2.5-.6,1.2-1,3.7-1,7.2v20.5c-3.7,2.1-7.3,3.6-10.8,4.5-3.5,1-7.5,1.4-11.8,1.4-12.5,0-21.9-4.1-28.4-12.5-4.8-6.2-7.3-13.4-7.3-21.6s1.4-11.6,4.1-17c3.3-6.4,7.7-11.4,13.3-14.8,4.7-2.9,10.3-4.3,16.7-4.3s4.5.2,6.4.6c1.9.4,4.6,1.3,8.1,2.6,1.8.7,3,1,3.6,1s1.1-.3,1.5-.9c.4-.6.6-1.7.8-3.3h1.8Z"/>
    <polygon class="cls-4" points="97.1 576.2 101.4 608.7 110.2 608.7 114.3 583.3 114.7 583.3 119.1 608.7 127.6 608.7 132.8 576.2 125.6 576.2 124 598.1 123.6 598.1 119.8 576.2 110.2 576.2 106.6 598.1 106.2 598.1 105.2 576.2 97.1 576.2"/>
    <rect class="cls-1" x="139.5" y="576.2" width="8.3" height="32.5"/>
    <polygon class="cls-4" points="153.9 576.2 153.9 581.2 160.1 581.2 160.1 608.7 168.5 608.7 168.5 581.2 174.7 581.2 174.7 576.2 153.9 576.2"/>
    <polygon class="cls-4" points="180.7 576.2 180.7 608.7 188.9 608.7 188.9 594.1 194.6 594.1 194.6 608.7 202.7 608.7 202.7 576.2 194.6 576.2 194.6 589.1 188.9 589.1 188.9 576.2 180.7 576.2"/>
    <polygon class="cls-4" points="227.6 576.2 234.8 595.6 234.8 608.7 243 608.7 243 595.6 250.5 576.2 243.2 576.2 239.8 589.9 239.4 589.9 235.9 576.2 227.6 576.2"/>
    <path class="cls-4" d="M277.9,587.2c0-8.4-2.4-11.5-11.2-11.5s-11.1,3.2-11.1,11.5v10.5c0,8.4,2.3,11.6,11.1,11.6s11.2-3.2,11.2-11.6v-10.5ZM269.6,585.7v13.4c0,3.4-.3,5-3,5s-2.9-1.6-2.9-5v-13.4c0-3.5.3-5.1,2.9-5.1s3,1.6,3,5.1"/>
    <path class="cls-4" d="M285.8,576.2v21.5c0,8.4,2.2,11.6,10.9,11.6s11-3.2,11-11.6v-21.5h-8.2v23c0,3.4-.3,5-2.8,5s-2.7-1.6-2.7-5v-23h-8.2Z"/>
    <path class="cls-4" d="M345.5,581.8h.2l2.2,15.1h-5.1l2.7-15.1ZM340.5,576.2l-7.4,32.5h7.3l1.4-6.8h7l1,6.8h8l-6.6-32.5h-10.6Z"/>
    <polygon class="cls-4" points="363.4 576.2 363.4 608.7 381.1 608.7 381.1 603.7 371.6 603.7 371.6 576.2 363.4 576.2"/>
    <polygon class="cls-4" points="382.6 576.2 386.8 608.7 395.6 608.7 399.6 583.3 400 583.3 404.5 608.7 413 608.7 418.1 576.2 411 576.2 409.3 598.1 409 598.1 405.2 576.2 395.5 576.2 392 598.1 391.6 598.1 390.5 576.2 382.6 576.2"/>
    <path class="cls-4" d="M433.7,581.8h.2l2.2,15.1h-5.1l2.7-15.1ZM428.7,576.2l-7.4,32.5h7.3l1.3-6.8h6.9l1.1,6.8h8l-6.6-32.5h-10.6Z"/>
    <polygon class="cls-4" points="447.7 576.2 454.9 595.6 454.9 608.7 463.1 608.7 463.1 595.6 470.6 576.2 463.3 576.2 459.9 589.9 459.5 589.9 456 576.2 447.7 576.2"/>
    <path class="cls-4" d="M496,583.4c0-5.2-3.3-7.8-9.3-7.8s-10.7,3.2-10.7,7.3v2.9c0,3.3,1.3,5.3,4.6,7.2l3.3,2.1c2.6,1.5,4.2,2.5,4.2,5v1.3c0,2-.5,2.8-2.3,2.8s-2.4-.8-2.4-2.8v-2.7h-8.3v2.4c0,5.6,2.7,8.2,10.2,8.2s11-2.9,11-7.9v-2c0-1.9-.3-3.4-1.3-4.7-1.1-1.5-2.7-2.2-4.2-3.2l-3.4-2.1c-2.3-1.4-3.6-2.5-3.6-4.4v-2.1c0-1.7.5-2.4,2-2.4s2.1.7,2.1,2.4v2.9h8.1v-2.4Z"/>
  </g>
</svg>