<svg width="83" height="80" viewBox="0 0 83 80" fill="none" xmlns="http://www.w3.org/2000/svg">
<g clip-path="url(#clip0_1476_6663)">
<path fill-rule="evenodd" clip-rule="evenodd" d="M0.00653076 0H82.0414V80H0.00653076V0Z" fill="#2E3E5C"/>
<path fill-rule="evenodd" clip-rule="evenodd" d="M61.4762 38.0372C62.1457 37.9151 66.6946 38.0372 67.7416 38.0372C68.759 37.9761 69.783 38.0243 70.7906 38.1818C73.2292 38.9014 74.6109 41.4235 73.8757 43.8107C73.3867 45.3978 72.0509 46.593 70.3935 46.9304C69.6846 47.0524 65.2144 46.9304 64.1281 46.9304C63.1106 46.9978 62.0866 46.9561 61.079 46.8083C58.6208 46.1047 57.2128 43.5858 57.9283 41.1794C57.9578 41.0798 57.9906 40.9769 58.03 40.8806C58.5453 39.3834 59.8614 38.291 61.4532 38.0404H61.4729L61.4762 38.0372ZM76.823 43.2902C77.1644 40.8452 76.2126 38.3938 74.2959 36.7906C73.413 36.0549 72.3594 35.5408 71.2271 35.2998C69.7633 35.1456 68.2897 35.1231 66.8226 35.2388H62.2278C60.9445 35.2067 59.6809 35.5247 58.5748 36.1577C55.0204 38.2781 53.8913 42.8179 56.0575 46.2974C56.4579 46.94 56.9535 47.5183 57.5311 48.0131C59.8286 49.9344 62.0637 49.6677 64.9847 49.6677H69.5796C73.3178 49.7159 76.4653 46.9368 76.8033 43.2902H76.823ZM33.4146 37.1986C33.7002 37.8605 34.0809 38.4806 34.5436 39.0396L38.1342 44.2733C38.8431 45.295 39.8245 46.7665 40.5564 47.7496C41.413 49.0637 42.9129 49.838 44.5014 49.793C46.0046 49.6324 47.324 48.752 48.0296 47.4412L50.4518 43.9649L54.6265 37.8316C55.132 37.1729 55.0007 36.238 54.3279 35.7432C53.9964 35.499 53.5763 35.3962 53.166 35.4605C52.4768 35.7079 51.9221 36.2283 51.6431 36.8902L49.2407 40.3665C48.4267 41.5103 47.6325 42.6958 46.8185 43.8428L45.6074 45.581C45.3219 46.3006 44.5999 46.7601 43.8122 46.7247C43.1623 46.4131 42.6405 45.8926 42.3287 45.2532L41.2653 43.5376L38.8431 40.0613L36.421 36.585C36.142 35.8557 35.397 35.4026 34.606 35.4798C33.7953 35.634 33.2636 36.4018 33.4146 37.1954V37.1986ZM5.20538 37.1986C5.4581 37.8573 5.81913 38.4709 6.26877 39.0171L11.0934 45.9665C12.2848 47.7239 13.4532 49.8284 16.2101 49.7288C18.967 49.6292 19.781 47.5633 21.0741 45.642L24.7073 40.4308L25.9381 38.8372C26.4993 38.2942 26.8341 37.5649 26.8768 36.7938C26.8046 35.9842 26.0727 35.3866 25.2456 35.4573C25.1832 35.4637 25.1209 35.4733 25.0585 35.4862C24.4054 35.7014 23.877 36.1769 23.598 36.7938C22.7841 37.9986 22.0325 39.0621 21.1758 40.2701C20.3192 41.4781 19.6103 42.683 18.7964 43.846C18.3795 44.4372 18.0021 44.9898 17.5853 45.5842C17.3063 46.2974 16.6105 46.7729 15.8327 46.789C15.1533 46.503 14.6085 45.9794 14.3098 45.3175C12.2224 42.5384 10.135 39.4733 8.2741 36.6107C7.98856 35.8846 7.2501 35.4251 6.45913 35.4862C5.64846 35.6211 5.10036 36.3665 5.22836 37.1633L5.20867 37.2051L5.20538 37.1986ZM29.8667 35.5022C28.3832 35.8075 28.613 37.0348 28.613 38.5673V47.2131C28.5047 47.8557 28.59 48.5175 28.8624 49.1151C29.3219 49.793 30.254 49.9794 30.9465 49.5296C31.2386 49.34 31.4552 49.0541 31.557 48.7263C31.7047 48.2765 31.557 43.0428 31.557 42.3296V38.0179C31.6719 37.3753 31.5898 36.7167 31.3272 36.1159C30.999 35.6308 30.405 35.3898 29.8241 35.5022H29.8667ZM29.8667 30.3135C29.6304 30.4292 29.4171 30.5898 29.2399 30.7826L28.1535 31.846C27.4446 32.54 28.0288 32.8067 28.9051 33.687L29.5516 34.2171C30.2606 34.9111 30.5133 34.4002 31.452 33.4814C32.7451 32.2348 32.7057 32.5014 30.7004 30.5384C30.5363 30.2878 30.2179 30.1785 29.9291 30.2717L29.8667 30.3135Z" fill="white"/>
</g>
<defs>
<clipPath id="clip0_1476_6663">
<rect width="82.0513" height="80" fill="white"/>
</clipPath>
</defs>
</svg>
