<svg width="108" height="80" viewBox="0 0 108 80" fill="none" xmlns="http://www.w3.org/2000/svg">
<path d="M95.5647 31.6574C96.1573 33.7145 98.4092 34.9717 100.542 34.4002C102.676 33.8288 103.98 31.6574 103.387 29.6002C102.794 27.5431 100.542 26.2859 98.4091 26.8574C96.2758 27.3145 94.9721 29.4859 95.5647 31.6574Z" fill="#2E3E5C"/>
<path d="M89.9945 35.7713C91.4167 35.4285 92.3649 33.9428 92.0093 32.4571C91.6538 31.0856 90.113 30.1713 88.5723 30.5142C87.1501 30.8571 86.2019 32.3428 86.5575 33.8285C86.913 35.3142 88.4538 36.2285 89.9945 35.7713Z" fill="#2E3E5C"/>
<path d="M81.8166 37.1424C82.8833 36.7995 83.5944 35.7709 83.2388 34.7424C82.8833 33.7138 81.8166 33.0281 80.7499 33.3709C79.6833 33.7138 78.9722 34.7424 79.3277 35.7709C79.5648 36.7995 80.7499 37.4852 81.8166 37.1424Z" fill="#2E3E5C"/>
<path d="M75.4167 38.1712C76.1278 37.9426 76.4834 37.2569 76.3648 36.6855C76.3648 35.9997 75.4167 35.6569 74.8241 35.7712C74.113 35.9997 73.7574 36.6855 73.8759 37.2569C73.8759 37.8283 74.7056 38.2855 75.4167 38.1712Z" fill="#2E3E5C"/>
<path d="M92.4831 23.6579C93.5498 25.3721 95.8016 25.9436 97.5794 25.0293C99.3572 24.0007 99.9498 21.8293 99.0016 20.115C97.935 18.4007 95.6831 17.8293 93.9053 18.7436C92.1276 19.6579 91.535 21.9436 92.4831 23.6579Z" fill="#2E3E5C"/>
<path d="M84.3055 28.1137C85.0166 29.3708 86.5573 29.7137 87.861 29.028C89.1647 28.3422 89.5203 26.8565 88.8092 25.5994C88.0981 24.3422 86.5573 23.9994 85.2536 24.6851C84.0685 25.3708 83.5944 26.9708 84.3055 28.1137Z" fill="#2E3E5C"/>
<path d="M78.4981 29.3711C77.55 29.8283 77.3129 30.9711 77.787 31.7711C78.2611 32.6854 79.4463 32.914 80.2759 32.4569C81.224 31.9997 81.4611 30.8569 80.987 30.0569C80.5129 29.1426 79.3277 28.914 78.4981 29.3711Z" fill="#2E3E5C"/>
<path d="M73.283 33.0283C72.6904 33.3711 72.4534 34.0568 72.8089 34.6283C73.1645 35.1997 73.8756 35.4283 74.4682 35.0854C75.0608 34.7426 75.2978 34.0568 74.9423 33.4854C74.5867 32.914 73.7571 32.6854 73.283 33.0283Z" fill="#2E3E5C"/>
<path d="M92.1278 16.5709C93.4315 15.3138 93.4315 13.2566 92.1278 11.9995C90.8241 10.7424 88.6908 10.7424 87.3871 11.9995C86.0834 13.2566 86.0834 15.3138 87.3871 16.5709C88.6908 17.8281 90.8241 17.8281 92.1278 16.5709Z" fill="#2E3E5C"/>
<path d="M83.9496 19.8854C83.0015 18.9711 81.4607 18.9711 80.5126 19.8854C79.5644 20.7997 79.5644 22.2854 80.5126 23.1997C81.4607 24.114 83.0015 24.114 83.9496 23.1997C84.8978 22.2854 84.8978 20.7997 83.9496 19.8854Z" fill="#2E3E5C"/>
<path d="M75.1793 26.0568C74.4682 26.7425 74.4682 27.7711 75.1793 28.3425C75.8904 29.0282 76.9571 29.0282 77.5497 28.3425C78.2608 27.6568 78.2608 26.6282 77.5497 26.0568C76.9571 25.3711 75.8904 25.3711 75.1793 26.0568Z" fill="#2E3E5C"/>
<path d="M71.0316 32.2285C71.5056 32.6856 72.2167 32.6856 72.5723 32.2285C73.0464 31.7713 73.0464 31.0856 72.5723 30.7428C72.0982 30.2856 71.3871 30.2856 71.0316 30.7428C70.676 31.1999 70.676 31.8856 71.0316 32.2285Z" fill="#2E3E5C"/>
<path d="M80.3944 11.1994C81.9351 11.9994 83.8314 11.5423 84.661 10.0565C85.4907 8.57083 85.0166 6.74225 83.4759 5.94225C81.9351 5.14225 80.0388 5.5994 79.2092 7.08511C78.261 8.45654 78.8536 10.2851 80.3944 11.1994Z" fill="#2E3E5C"/>
<path d="M74.7056 16.3424C74.113 17.3709 74.4686 18.7424 75.5353 19.3138C76.6019 19.8852 78.0242 19.5424 78.6168 18.5138C79.2093 17.4852 78.8538 16.1138 77.7871 15.5424C76.6019 14.8566 75.2982 15.3138 74.7056 16.3424Z" fill="#2E3E5C"/>
<path d="M73.1649 22.971C72.4537 22.6281 71.5056 22.8567 71.15 23.5424C70.7945 24.2281 71.15 25.1424 71.7426 25.4853C72.4537 25.8281 73.4019 25.5996 73.7574 24.9139C74.113 24.3424 73.876 23.4281 73.1649 22.971Z" fill="#2E3E5C"/>
<path d="M69.7277 28.7998C69.2536 28.5713 68.661 28.6855 68.3055 29.1427C68.0684 29.5998 68.3055 30.1713 68.661 30.5141C69.0166 30.857 69.7277 30.6284 70.0832 30.1713C70.4388 29.5998 70.0832 29.0284 69.7277 28.7998Z" fill="#2E3E5C"/>
<path d="M71.9797 7.65686C73.5204 8.114 75.1797 7.19971 75.6538 5.59971C76.1279 4.114 75.1797 2.514 73.5204 2.05686C71.9797 1.714 70.3204 2.514 69.8464 4.114C69.4908 5.714 70.439 7.19971 71.9797 7.65686Z" fill="#2E3E5C"/>
<path d="M69.4906 16.6858C70.5573 17.0287 71.7424 16.343 71.9795 15.3144C72.335 14.2858 71.6239 13.143 70.5572 12.9144C69.4906 12.5715 68.3054 13.2572 68.0684 14.2858C67.8313 15.3144 68.4239 16.343 69.4906 16.6858Z" fill="#2E3E5C"/>
<path d="M67.5943 23.771C68.3054 23.9996 69.135 23.5424 69.2535 22.8567C69.4906 22.171 69.0165 21.371 68.3054 21.2567C67.5943 21.0282 66.7646 21.4853 66.6461 22.171C66.4091 22.8567 66.7646 23.5424 67.5943 23.771Z" fill="#2E3E5C"/>
<path d="M65.3426 28.2279C65.3426 28.685 65.3426 29.2565 66.0537 29.3707C66.5278 29.485 67.1204 29.2565 67.2389 28.685C67.2389 28.2279 67.2389 27.6565 66.5278 27.5422C66.0537 27.4279 65.4612 27.7707 65.3426 28.2279Z" fill="#2E3E5C"/>
<path d="M62.972 6.285C64.5127 6.285 65.8164 5.02786 65.8164 3.54215C65.8164 2.05643 64.5127 0.913574 62.972 0.913574C61.4312 0.913574 60.1275 2.17072 60.1275 3.65643C60.2461 5.14215 61.5498 6.285 62.972 6.285Z" fill="#2E3E5C"/>
<path d="M62.9719 12.1143C61.9052 12.1143 61.0756 12.9143 61.0756 13.9428C61.0756 14.9714 61.9052 15.7714 62.9719 15.7714C64.0385 15.7714 64.8682 14.9714 64.8682 13.9428C64.8682 12.9143 64.0385 12.1143 62.9719 12.1143Z" fill="#2E3E5C"/>
<path d="M64.2761 21.8284C64.2761 21.1427 63.6835 20.5713 62.9724 20.5713C62.2613 20.5713 61.6687 21.1427 61.6687 21.8284C61.6687 22.5141 62.2613 23.0856 62.9724 23.0856C63.8021 23.0856 64.2761 22.5141 64.2761 21.8284Z" fill="#2E3E5C"/>
<path d="M62.972 27.2002C62.498 27.2002 62.1424 27.5431 62.1424 28.0002C62.1424 28.4573 62.498 28.8002 62.972 28.8002C63.4461 28.8002 63.8017 28.4573 63.8017 28.0002C63.8017 27.5431 63.4461 27.2002 62.972 27.2002Z" fill="#2E3E5C"/>
<path d="M53.965 7.3139C55.3872 6.97105 56.2169 5.59962 55.7428 4.22819C55.3872 2.85676 53.965 2.05676 52.5428 2.5139C51.1206 2.97105 50.291 4.22819 50.765 5.59962C51.1206 6.85676 52.5428 7.65676 53.965 7.3139Z" fill="#2E3E5C"/>
<path d="M54.4388 15.1998C54.6759 16.1141 55.624 16.5713 56.4537 16.3427C57.4018 16.1141 57.8759 15.1998 57.6388 14.3998C57.4018 13.4855 56.4537 13.0284 55.624 13.257C54.6759 13.4855 54.2018 14.2855 54.4388 15.1998Z" fill="#2E3E5C"/>
<path d="M56.9279 22.7427C56.9279 23.4284 57.7575 23.7713 58.3501 23.5427C59.0612 23.4284 59.4168 22.7427 59.1798 22.1713C59.1798 21.4856 58.3501 21.1427 57.7575 21.3713C57.1649 21.4856 56.8094 22.1713 56.9279 22.7427Z" fill="#2E3E5C"/>
<path d="M59.0609 28.6852C59.0609 29.0281 59.535 29.2567 60.0091 29.1424C60.3646 29.0281 60.6017 28.6852 60.4831 28.2281C60.4831 27.8852 60.0091 27.6567 59.535 27.7709C59.1794 27.7709 58.9424 28.2281 59.0609 28.6852Z" fill="#2E3E5C"/>
<path d="M45.4314 10.6284C46.6166 9.9427 46.9721 8.57127 46.3795 7.42841C45.787 6.28556 44.2462 5.9427 43.061 6.51413C41.8758 7.19984 41.5203 8.57127 42.1129 9.71413C42.7055 10.857 44.2462 11.1998 45.4314 10.6284Z" fill="#2E3E5C"/>
<path d="M50.1722 18.6283C50.8834 18.2855 51.1204 17.3712 50.7648 16.6855C50.4093 15.9998 49.4611 15.7712 48.75 16.1141C48.0389 16.4569 47.8019 17.3712 48.1574 18.0569C48.6315 18.7426 49.4611 18.9712 50.1722 18.6283Z" fill="#2E3E5C"/>
<path d="M54.2017 25.2573C54.7943 24.9144 54.9128 24.343 54.5572 23.7716C54.2017 23.2001 53.6091 23.0858 53.0165 23.4287C52.4239 23.7716 52.3054 24.343 52.6609 24.9144C52.898 25.3716 53.6091 25.4858 54.2017 25.2573Z" fill="#2E3E5C"/>
<path d="M57.402 29.3716C57.1649 29.0288 56.8094 29.0288 56.4538 29.1431C56.2168 29.2573 56.0982 29.7145 56.2168 29.9431C56.4538 30.2859 56.8094 30.2859 57.0464 30.1716C57.402 30.0573 57.5205 29.6002 57.402 29.3716Z" fill="#2E3E5C"/>
<path d="M37.9649 15.8859C38.7945 15.0859 38.7945 13.7145 37.9649 12.8002C37.1353 12.0002 35.713 12.0002 34.7649 12.8002C33.9353 13.6002 33.9353 14.9716 34.7649 15.8859C35.713 16.6859 37.1353 16.6859 37.9649 15.8859Z" fill="#2E3E5C"/>
<path d="M44.8387 20.6856C44.3646 20.2285 43.535 20.2285 43.0609 20.6856C42.5868 21.1428 42.5868 21.9428 43.0609 22.3999C43.535 22.8571 44.3646 22.8571 44.8387 22.3999C45.3127 21.9428 45.3127 21.1428 44.8387 20.6856Z" fill="#2E3E5C"/>
<path d="M50.4091 26.514C50.0536 26.1711 49.3425 26.1711 48.9869 26.514C48.6314 26.8568 48.6314 27.5425 48.9869 27.8854C49.3425 28.2283 50.0536 28.2283 50.4091 27.8854C50.7647 27.5425 50.7647 26.8568 50.4091 26.514Z" fill="#2E3E5C"/>
<path d="M54.6758 31.2002C54.4388 30.9717 54.0832 30.9717 53.9647 31.2002C53.7277 31.4288 53.7277 31.7717 53.9647 31.886C54.2017 32.0002 54.5573 32.1145 54.6758 31.886C54.9128 31.7717 54.9128 31.4288 54.6758 31.2002Z" fill="#2E3E5C"/>
<path d="M29.3129 23.5429C30.2611 24.1143 31.5648 23.7715 32.1574 22.8572C32.75 21.9429 32.3944 20.6858 31.4463 20.1143C30.4981 19.5429 29.1944 19.8858 28.6018 20.8C28.0092 21.7143 28.3648 22.9715 29.3129 23.5429Z" fill="#2E3E5C"/>
<path d="M40.098 26.0572C39.5054 25.7143 38.9128 25.9429 38.5572 26.4C38.2017 26.9715 38.5572 27.5429 38.9128 27.8857C39.5054 28.2286 40.098 28 40.4535 27.5429C40.8091 26.9715 40.4535 26.4 40.098 26.0572Z" fill="#2E3E5C"/>
<path d="M47.2094 30.1714C46.7353 29.9428 46.1427 30.0571 45.9057 30.5143C45.6687 30.9714 45.9057 31.5428 46.2612 31.7714C46.7353 32 47.3279 31.8857 47.5649 31.4286C47.802 30.9714 47.5649 30.4 47.2094 30.1714Z" fill="#2E3E5C"/>
<path d="M100.78 35.6572C98.2906 35.6572 96.2758 37.6001 96.2758 40.0001C96.2758 42.4001 98.2906 44.3429 100.78 44.3429C103.268 44.3429 105.283 42.4001 105.283 40.0001C105.283 37.6001 103.268 35.6572 100.78 35.6572Z" fill="#2E3E5C"/>
<path d="M93.4312 39.9998C93.4312 38.2855 92.009 36.9141 90.2312 36.9141C88.4534 36.9141 87.0312 38.2855 87.0312 39.9998C87.0312 41.7141 88.4534 43.0855 90.2312 43.0855C92.009 43.0855 93.4312 41.7141 93.4312 39.9998Z" fill="#2E3E5C"/>
<path d="M81.9348 37.9429C80.7496 37.9429 79.8015 38.8572 79.8015 40C79.8015 41.1429 80.7496 42.0572 81.9348 42.0572C83.12 42.0572 84.0681 41.1429 84.0681 40C84.0681 38.8572 83.12 37.9429 81.9348 37.9429Z" fill="#2E3E5C"/>
<path d="M76.9573 39.9998C76.9573 39.1998 76.3647 38.6284 75.5351 38.6284C74.7055 38.6284 74.1129 39.1998 74.1129 39.9998C74.1129 40.7998 74.7055 41.3713 75.5351 41.3713C76.3647 41.3713 76.9573 40.7998 76.9573 39.9998Z" fill="#2E3E5C"/>
<path d="M100.542 45.6001C98.4092 45.0286 96.1573 46.2858 95.5647 48.3429C94.9721 50.4 96.2758 52.5715 98.4091 53.1429C100.542 53.7143 102.794 52.4572 103.387 50.4C104.098 48.3429 102.676 46.1715 100.542 45.6001Z" fill="#2E3E5C"/>
<path d="M88.5718 49.3715C89.9941 49.7144 91.5348 48.9144 92.0089 47.4287C92.3644 46.0573 91.5348 44.5715 89.9941 44.1144C88.5718 43.7715 87.0311 44.5715 86.557 46.0573C86.2015 47.543 87.0311 48.9144 88.5718 49.3715Z" fill="#2E3E5C"/>
<path d="M80.7499 46.6287C81.8166 46.9715 83.0018 46.2858 83.2388 45.2573C83.5944 44.2287 82.8833 43.0858 81.8166 42.8573C80.7499 42.5144 79.5648 43.2001 79.3277 44.2287C78.9722 45.2573 79.6833 46.2858 80.7499 46.6287Z" fill="#2E3E5C"/>
<path d="M74.7057 44.3423C75.4168 44.5708 76.1279 44.1137 76.2464 43.428C76.4834 42.7423 76.0094 42.0566 75.2982 41.9423C74.5871 41.7137 73.876 42.1708 73.7575 42.8566C73.7575 43.428 74.1131 44.1137 74.7057 44.3423Z" fill="#2E3E5C"/>
<path d="M97.5796 55.0858C95.8018 54.0572 93.5499 54.743 92.4833 56.4572C91.4166 58.1715 92.1277 60.343 93.9055 61.3715C95.6833 62.4001 97.9351 61.7144 99.0018 60.0001C99.9499 58.2858 99.3573 56.1144 97.5796 55.0858Z" fill="#2E3E5C"/>
<path d="M88.8094 54.2851C89.5205 53.0279 89.1649 51.5422 87.8612 50.8565C86.5575 50.1708 85.0168 50.5136 84.3057 51.7708C83.5945 53.0279 83.9501 54.5136 85.2538 55.1993C86.5575 55.9993 88.0983 55.5422 88.8094 54.2851Z" fill="#2E3E5C"/>
<path d="M80.987 49.9435C81.4611 49.0292 81.224 48.0007 80.2759 47.5435C79.3277 47.0864 78.2611 47.3149 77.787 48.2292C77.3129 49.1435 77.55 50.1721 78.4981 50.6292C79.3277 51.0864 80.5129 50.8578 80.987 49.9435Z" fill="#2E3E5C"/>
<path d="M74.9424 46.5142C75.298 45.9428 74.9424 45.257 74.4684 44.9142C73.8758 44.5713 73.1647 44.9142 72.8091 45.3713C72.4536 45.8285 72.8091 46.6285 73.2832 46.9713C73.8758 47.3142 74.5869 46.9713 74.9424 46.5142Z" fill="#2E3E5C"/>
<path d="M87.3871 63.4282C86.0834 64.6854 86.0834 66.7425 87.3871 67.9996C88.6908 69.2568 90.8241 69.2568 92.1278 67.9996C93.4315 66.7425 93.4315 64.6854 92.1278 63.4282C90.8241 62.1711 88.6908 62.1711 87.3871 63.4282Z" fill="#2E3E5C"/>
<path d="M83.9496 60.1138C84.8978 59.1995 84.8978 57.7138 83.9496 56.7995C83.0015 55.8852 81.4607 55.8852 80.5126 56.7995C79.5644 57.7138 79.5644 59.1995 80.5126 60.1138C81.4607 61.0281 83.0015 61.0281 83.9496 60.1138Z" fill="#2E3E5C"/>
<path d="M77.5497 53.9431C78.2608 53.2574 78.2608 52.2288 77.5497 51.6574C76.8385 50.9716 75.7719 50.9716 75.1793 51.6574C74.4682 52.3431 74.4682 53.3716 75.1793 53.9431C75.8904 54.6288 76.9571 54.6288 77.5497 53.9431Z" fill="#2E3E5C"/>
<path d="M71.0316 49.2568C71.5056 49.7139 72.2167 49.7139 72.5723 49.2568C73.0464 48.7997 73.0464 48.1139 72.5723 47.7711C72.0982 47.3139 71.3871 47.3139 71.0316 47.7711C70.676 48.1139 70.676 48.7997 71.0316 49.2568Z" fill="#2E3E5C"/>
<path d="M80.3944 68.8002C78.8537 69.6002 78.3796 71.543 79.2092 72.9144C80.0389 74.4002 82.0537 74.8573 83.4759 74.0573C84.8981 73.2573 85.4907 71.3145 84.6611 69.943C83.8315 68.4573 81.8167 68.0002 80.3944 68.8002Z" fill="#2E3E5C"/>
<path d="M78.498 61.5997C77.9054 60.5711 76.4832 60.2283 75.4165 60.7997C74.3498 61.3711 73.9943 62.7425 74.5869 63.7711C75.1795 64.7997 76.6017 65.1425 77.6683 64.5711C78.735 63.8854 79.2091 62.6283 78.498 61.5997Z" fill="#2E3E5C"/>
<path d="M73.1649 57.0283C73.8761 56.6854 74.1131 55.7711 73.7575 55.0854C73.402 54.3997 72.4538 54.1711 71.7427 54.514C71.0316 54.8568 70.7946 55.7711 71.1501 56.4568C71.6242 57.1425 72.4538 57.3711 73.1649 57.0283Z" fill="#2E3E5C"/>
<path d="M68.7796 49.4854C68.3055 49.714 68.0685 50.3997 68.424 50.8568C68.6611 51.314 69.3722 51.5425 69.8463 51.1997C70.3203 50.9711 70.5574 50.2854 70.2018 49.8282C69.8463 49.3711 69.2537 49.2568 68.7796 49.4854Z" fill="#2E3E5C"/>
<path d="M71.9797 72.3428C70.439 72.7999 69.4908 74.2856 69.8464 75.8856C70.3204 77.3713 71.8612 78.2856 73.5204 77.9428C75.0612 77.4856 76.0093 75.9999 75.6538 74.3999C75.2982 72.7999 73.639 71.8856 71.9797 72.3428Z" fill="#2E3E5C"/>
<path d="M70.5573 67.0852C71.624 66.7424 72.3351 65.7138 71.9796 64.6852C71.624 63.6567 70.5573 62.9709 69.4907 63.3138C68.424 63.6567 67.7129 64.6852 68.0685 65.7138C68.424 66.8567 69.4907 67.4281 70.5573 67.0852Z" fill="#2E3E5C"/>
<path d="M69.2534 57.1422C69.0164 56.4565 68.3053 55.9993 67.5942 56.2279C66.8831 56.4565 66.409 57.1422 66.646 57.8279C66.8831 58.5136 67.5942 58.9708 68.3053 58.7422C69.0164 58.6279 69.4905 57.9422 69.2534 57.1422Z" fill="#2E3E5C"/>
<path d="M67.1203 51.3138C67.1203 50.8567 66.4092 50.5138 65.9352 50.6281C65.4611 50.6281 65.1055 51.3138 65.2241 51.771C65.2241 52.2281 65.8166 52.571 66.4092 52.4567C67.0018 52.3424 67.2389 51.771 67.1203 51.3138Z" fill="#2E3E5C"/>
<path d="M62.972 73.7139C61.4312 73.7139 60.1275 74.971 60.1275 76.4567C60.1275 77.9424 61.4312 79.1996 62.972 79.1996C64.5127 79.1996 65.8164 78.0567 65.8164 76.4567C65.8164 74.8567 64.6312 73.7139 62.972 73.7139Z" fill="#2E3E5C"/>
<path d="M61.1946 66.1709C61.1946 67.1994 62.0242 67.9994 63.0909 67.9994C64.1575 67.9994 64.9872 67.1994 64.9872 66.1709C64.9872 65.1423 64.1575 64.3423 63.0909 64.3423C62.0242 64.3423 61.1946 65.1423 61.1946 66.1709Z" fill="#2E3E5C"/>
<path d="M62.9724 59.4283C63.6835 59.4283 64.2761 58.8569 64.2761 58.1712C64.2761 57.4855 63.6835 56.9141 62.9724 56.9141C62.2613 56.9141 61.6687 57.4855 61.6687 58.1712C61.6687 58.8569 62.2613 59.4283 62.9724 59.4283Z" fill="#2E3E5C"/>
<path d="M62.972 51.1997C62.498 51.1997 62.1424 51.5426 62.1424 51.9997C62.1424 52.4569 62.498 52.7997 62.972 52.7997C63.4461 52.7997 63.8017 52.4569 63.8017 51.9997C63.8017 51.5426 63.4461 51.1997 62.972 51.1997Z" fill="#2E3E5C"/>
<path d="M53.9648 72.6851C52.5425 72.3422 51.1203 73.1422 50.7648 74.3994C50.4092 75.7708 51.2388 77.1422 52.5425 77.4851C53.9648 77.828 55.387 77.028 55.7425 75.7708C56.0981 74.3994 55.2685 73.028 53.9648 72.6851Z" fill="#2E3E5C"/>
<path d="M56.4537 63.6572C55.5056 63.4287 54.676 64.0001 54.4389 64.8001C54.2019 65.7144 54.7945 66.5144 55.6241 66.7429C56.5723 66.9715 57.4019 66.4001 57.6389 65.6001C57.876 64.8001 57.2834 63.8858 56.4537 63.6572Z" fill="#2E3E5C"/>
<path d="M58.4685 56.3428C57.7574 56.3428 57.1648 56.5713 57.0463 57.1428C57.0463 57.8285 57.2833 58.3999 57.8759 58.5142C58.587 58.5142 59.1796 58.2856 59.2981 57.7142C59.5352 57.2571 59.0611 56.5713 58.4685 56.3428Z" fill="#2E3E5C"/>
<path d="M60.4833 51.7707C60.4833 51.4279 60.4833 50.9707 60.0093 50.8564C59.6537 50.8564 59.1796 50.8564 59.0611 51.3136C58.9426 51.7707 59.0611 52.1136 59.5352 52.2279C60.0092 52.2279 60.4833 52.1136 60.4833 51.7707Z" fill="#2E3E5C"/>
<path d="M45.4316 69.371C44.2465 68.6853 42.8242 69.1424 42.1131 70.171C41.402 71.3138 41.8761 72.6853 42.9428 73.371C44.1279 74.0567 45.5502 73.5995 46.2613 72.571C46.9724 71.5424 46.4983 70.0567 45.4316 69.371Z" fill="#2E3E5C"/>
<path d="M50.1722 61.3712C49.4611 61.0283 48.5129 61.3712 48.1573 61.9426C47.8018 62.514 48.1573 63.5426 48.7499 63.8855C49.3425 64.2283 50.4092 63.8855 50.7648 63.314C51.1203 62.6283 50.7648 61.714 50.1722 61.3712Z" fill="#2E3E5C"/>
<path d="M53.0169 56.6854C53.6095 57.0283 54.2021 56.6854 54.5577 56.3426C54.9132 55.9997 54.5577 55.1997 54.2021 54.8569C53.6095 54.514 53.0169 54.8569 52.6614 55.1997C52.3058 55.6569 52.6614 56.3426 53.0169 56.6854Z" fill="#2E3E5C"/>
<path d="M57.1648 49.8281C56.8093 49.5995 56.4537 49.8281 56.3352 50.0566C56.0982 50.3995 56.3352 50.7424 56.5723 50.8566C56.9278 51.0852 57.2834 50.8566 57.4019 50.6281C57.4019 50.3995 57.4019 49.9424 57.1648 49.8281Z" fill="#2E3E5C"/>
<path d="M34.7649 64.1142C33.9353 64.9142 33.9353 66.2856 34.7649 67.1999C35.5945 68.1142 37.0167 67.9999 37.9649 67.1999C38.7945 66.3999 38.7945 65.0284 37.9649 64.1142C37.1353 63.3142 35.713 63.3142 34.7649 64.1142Z" fill="#2E3E5C"/>
<path d="M42.9426 57.5995C42.4685 58.0566 42.4685 58.8566 42.9426 59.3138C43.4167 59.7709 44.2463 59.7709 44.7204 59.3138C45.1944 58.8566 45.1944 58.0566 44.7204 57.5995C44.2463 57.028 43.4167 57.028 42.9426 57.5995Z" fill="#2E3E5C"/>
<path d="M48.9869 52.1143C48.6314 52.4572 48.6314 53.1429 48.9869 53.4858C49.3425 53.8286 50.0536 53.8286 50.4091 53.4858C50.7647 53.1429 50.7647 52.4572 50.4091 52.1143C50.0536 51.6572 49.3425 51.6572 48.9869 52.1143Z" fill="#2E3E5C"/>
<path d="M54.6758 47.9996C54.4388 47.771 54.0832 47.771 53.9647 47.9996C53.7277 48.2281 53.7277 48.571 53.9647 48.6853C54.2017 48.9138 54.5573 48.9138 54.6758 48.6853C54.9128 48.6853 54.9128 48.2281 54.6758 47.9996Z" fill="#2E3E5C"/>
<path d="M29.3129 56.4566C28.3648 57.028 28.0092 58.1709 28.6018 59.1995C29.1944 60.1138 30.3796 60.4566 31.4463 59.8852C32.3944 59.3138 32.75 58.1709 32.1574 57.1423C31.5648 56.228 30.3796 55.8852 29.3129 56.4566Z" fill="#2E3E5C"/>
<path d="M39.0315 52.1138C38.5575 52.4567 38.3204 53.0281 38.676 53.5995C39.0315 54.0567 39.6241 54.2852 40.2167 53.9424C40.6908 53.5995 40.9278 53.0281 40.5723 52.4567C40.2167 51.9995 39.5056 51.771 39.0315 52.1138Z" fill="#2E3E5C"/>
<path d="M46.2611 48.2281C45.787 48.4566 45.6685 49.0281 45.9055 49.4852C46.1426 49.9423 46.7352 50.0566 47.2092 49.8281C47.6833 49.5995 47.8018 49.0281 47.5648 48.5709C47.2092 48.1138 46.7352 47.9995 46.2611 48.2281Z" fill="#2E3E5C"/>
<path d="M25.1648 33.7143H28.4833V45.8286H25.1648V33.7143ZM27.1796 28.3429C26.1129 28.1143 25.1648 28.6857 24.8092 29.6C24.4536 30.5143 25.1648 31.5429 26.1129 31.8857C27.0611 32.2286 28.1277 31.5429 28.4833 30.6286C28.8388 29.6 28.2462 28.5715 27.1796 28.3429ZM38.5573 46.1715C37.7277 46.1715 37.0166 46.1715 36.187 45.7143C35.4759 45.3715 35.0018 45.0286 34.5277 44.4572V52H31.3277V33.7143H34.5277V35.4286C34.8833 34.8572 35.4759 34.4 36.187 34.0572C36.8981 33.7143 37.7277 33.4857 38.5573 33.4857C39.387 33.4857 40.0981 33.6 40.8092 33.9429C41.5203 34.2857 42.2314 34.6286 42.7055 35.2C43.2981 35.7715 43.7722 36.4572 44.0092 37.2572C44.3648 38.0572 44.4833 38.9715 44.4833 39.8857C44.4833 40.8 44.4833 41.7143 44.0092 42.5143C43.6536 43.2 43.1796 43.8857 42.587 44.5715C41.6388 45.6 40.2166 46.1715 38.5573 46.1715ZM37.9648 43.2C38.4388 43.2 38.9129 43.2 39.387 42.9715C39.7425 42.7429 40.2166 42.5143 40.4536 42.2857C40.8092 41.9429 41.0462 41.6 41.1648 41.2572C41.5203 40.3429 41.5203 39.4286 41.1648 38.5143C41.1648 38.1715 40.6907 37.7143 40.4536 37.4857C40.0981 37.1429 39.7425 36.9143 39.387 36.8C38.9129 36.5715 38.4388 36.5715 37.9648 36.5715C37.0166 36.5715 36.187 36.9143 35.4759 37.6C35.1203 37.9429 34.8833 38.2857 34.7648 38.6286C34.4092 39.5429 34.4092 40.4572 34.7648 41.2572C34.8833 41.6 35.1203 42.0572 35.4759 42.2857C36.0685 42.8572 37.0166 43.2 37.9648 43.2ZM46.9722 33.7143H50.1722V35.5429C50.4092 34.8572 50.8833 34.2857 51.5944 33.9429C52.3055 33.6 53.0166 33.3715 53.7277 33.4857C54.0833 33.4857 54.5574 33.4857 54.9129 33.6C55.2685 33.7143 55.624 33.8286 55.8611 33.9429L54.6759 37.0286C54.4388 37.0286 54.2018 36.8 53.9648 36.6857C53.6092 36.6857 53.2536 36.6857 53.0166 36.6857C52.3055 36.6857 51.5944 36.9143 51.0018 37.3715C50.5277 37.8286 50.2907 38.5143 50.2907 39.5429V45.9429H47.0907V33.8286L46.9722 33.7143ZM62.8536 46.1715C61.9055 46.1715 61.0759 46.1715 60.2462 45.7143C59.4166 45.3715 58.7055 44.9143 58.1129 44.3429C56.9277 43.2 56.2166 41.6 56.2166 39.8857C56.2166 38.1715 56.2166 38.1715 56.6907 37.3715C57.0462 36.5715 57.5203 35.8857 58.1129 35.3143C60.7203 32.8 64.987 32.8 67.5944 35.3143C70.2018 37.8286 69.4907 38.0572 69.4907 39.7715C69.4907 41.4857 69.4907 41.4857 69.0166 42.1715C68.6611 42.9715 68.187 43.6572 67.5944 44.2286C67.0018 44.8 66.2907 45.2572 65.4611 45.6C64.7499 45.9429 63.8018 46.1715 62.8536 46.1715ZM62.9722 43.2C63.4462 43.2 63.9203 43.2 64.3944 42.9715C64.7499 42.7429 65.1055 42.5143 65.4611 42.2857C65.8166 41.9429 66.0536 41.6 66.1722 41.2572C66.5277 40.3429 66.5277 39.4286 66.1722 38.6286C66.1722 38.2857 65.8166 37.8286 65.4611 37.6C65.1055 37.2572 64.7499 37.0286 64.3944 36.9143C63.5648 36.5715 62.4981 36.5715 61.6685 36.9143C61.3129 37.1429 60.9574 37.3715 60.6018 37.6C60.2462 37.9429 60.0092 38.2857 59.8907 38.6286C59.5351 39.5429 59.5351 40.4572 59.8907 41.2572C59.8907 41.6 60.2462 42.0572 60.6018 42.2857C60.9574 42.5143 61.3129 42.8572 61.6685 42.9715C62.024 43.0857 62.4981 43.2 62.9722 43.2ZM2.40919 33.7143H5.72771L8.2166 41.4857L11.1796 33.7143H14.024L16.987 41.4857L19.5944 33.7143H22.9129L18.6462 45.8286H15.5648L12.6018 37.9429L9.52031 45.8286H6.43883L2.40919 33.7143Z" fill="#2E3E5C"/>
</svg>
