<svg width="188" height="80" viewBox="0 0 188 80" fill="none" xmlns="http://www.w3.org/2000/svg">
<g clip-path="url(#clip0_1476_6666)">
<path d="M29.5106 20.1869L29.346 30.9981L15.2462 61.6374C21.133 61.6374 24.873 61.5178 27.0272 61.2785C26.4064 67.0953 25.8977 71.8505 25.3816 78.9682C22.5467 78.4897 18.1335 78.3701 13.7128 78.3701C9.29213 78.3701 4.48249 78.4897 1.02673 78.9682L1.13893 68.0374L15.2387 37.5178C9.06773 37.5178 6.80129 37.6374 4.25061 37.757C4.81161 32.2991 5.21553 26.243 5.61197 20.172C10.085 20.5308 11.8428 20.6505 17.6772 20.6505C23.0553 20.6505 26.1147 20.5308 29.5106 20.172V20.1869ZM45.5402 16.9869C36.3623 16.9869 29.346 33.3757 29.346 52.9794C29.346 72.5832 33.5947 78.9832 41.8601 78.9832C50.1255 78.9832 58.0542 62.5944 58.0542 42.871C58.0542 28.2766 53.9178 16.9869 45.5402 16.9869ZM42.7651 63.2374C40.7231 63.2374 39.5413 59.5439 39.5413 52.3065C39.5413 41.4953 41.7479 32.8374 44.4706 32.8374C47.1933 32.8374 47.6421 36.3963 47.6421 43.7682C47.6421 54.4598 45.4879 63.2523 42.7726 63.2523L42.7651 63.2374ZM175.243 16.1645C165.946 16.1645 158.832 32.7776 158.832 52.6206C158.832 72.4636 163.133 78.9832 171.511 78.9832C179.888 78.9832 187.922 62.3701 187.922 42.4075C187.922 27.6037 183.733 16.1794 175.243 16.1794V16.1645ZM172.259 63.1626C170.217 63.1626 169.035 59.4692 169.035 52.2318C169.035 41.4206 171.242 32.7626 173.964 32.7626C176.687 32.7626 177.136 36.3215 177.136 43.6935C177.136 54.3851 174.982 63.1776 172.266 63.1776L172.259 63.1626ZM105.679 38.3701C106.42 28.2766 106.023 19.1252 100.413 19.1252C94.8035 19.1252 91.9162 26.0187 88.8045 37.5327C89.4852 28.0224 89.0888 19.1252 83.5386 19.1252C77.9885 19.1252 74.8169 26.3626 71.7053 38.3701C72.4981 30.5346 72.3261 21.6224 72.1017 19.7234C68.8778 20.8 66.0429 21.3832 62.0785 21.6224C62.1907 27.0953 62.0187 34.2131 61.51 40.9869L60.2085 58.7963C59.6999 65.8093 59.1314 73.8841 58.5629 78.9981H69.0947C69.1546 75.9028 69.551 71.043 69.8353 66.7664L70.7403 54.5346C71.4734 46.5645 74.6449 37.1888 77.0834 37.1888C79.5219 37.1888 78.4447 39.9252 78.0483 45.0243L77.031 58.7963C76.5224 65.8093 75.9539 73.8841 75.3854 78.9981H86.0295C86.0893 75.9028 86.4259 71.043 86.7101 66.7664L87.6152 54.5346C88.3557 46.5645 91.5273 37.1888 93.9583 37.1888C96.3893 37.1888 95.3196 39.8056 95.0877 43.3645L92.5445 78.9981H102.261L105.679 38.3851V38.3701ZM156.551 60.3365L155.421 74.3477C153.664 76.2467 150.38 78.9832 146.588 78.9832C140.132 78.9832 138.831 72.0897 139.848 57.4804L141.494 33.9589H138.315L139.212 18.7365L142.683 18.4075L143.984 7.35701L153.776 0L152.534 18.4075H159.274C159.049 20.3065 158.249 30.7589 158.032 33.9589H151.457L149.983 55.7009C149.587 61.2785 149.819 63.2972 151.741 63.2972C153.162 63.2972 155.257 61.6374 156.558 60.3215L156.551 60.3365ZM119.39 67.9028C122.958 67.0206 125.412 60.1421 126.003 53.2935L126.1 51.4542C124.566 50.7664 122.352 50.243 120.206 50.7664C118.164 51.2598 116.458 52.9645 115.546 55.4168C114.857 57.1813 114.506 59.2897 114.663 61.8168C114.895 65.5851 116.982 68.471 119.39 67.8879V67.9028ZM116.361 78.7589C111.327 80 108.013 76.0075 107.018 66.9159C106.397 61.2037 107.258 54.6841 108.776 50.8112C110.803 45.7271 114.117 42.4673 118.149 41.4804C121.395 40.6729 124.133 41.0766 126.691 42.0336L126.795 41.1514C126.87 39.7458 126.945 38.3551 126.84 36.6654C126.579 32.3589 124.873 29.8019 120.684 30.8336C117.857 31.5215 115.164 33.5701 113.07 35.9028L111.035 23.6262C113.87 20.3813 117.438 17.8991 121.53 16.8972C129.339 14.9832 134.822 19.9626 135.525 31.4019C135.712 34.4374 135.734 37.6673 135.54 40.5981C134.537 54.7439 133.894 65.3907 133.61 72.5234C133.565 73.6299 133.565 75.529 133.61 78.2206H123.923C124.133 77.0841 124.312 75.5738 124.477 73.6748C124.589 72.4337 124.664 70.8486 124.709 68.9495C122.659 74.572 119.847 77.9065 116.338 78.7589H116.361Z" fill="#2E3E5C"/>
</g>
<defs>
<clipPath id="clip0_1476_6666">
<rect width="187" height="80" fill="white" transform="translate(0.974365)"/>
</clipPath>
</defs>
</svg>
